<?xml version="1.0" encoding="UTF-8" standalone="no"?>
<!DOCTYPE svg PUBLIC "-//W3C//DTD SVG 1.1//EN"
 "http://www.w3.org/Graphics/SVG/1.1/DTD/svg11.dtd">
<!-- Generated by graphviz version 2.36.0 (20140111.2315)
 -->
<!-- Title: G Pages: 1 -->
<svg width="466pt" height="888pt"
 viewBox="0.00 0.00 466.00 888.00" xmlns="http://www.w3.org/2000/svg" xmlns:xlink="http://www.w3.org/1999/xlink">
<g id="graph0" class="graph" transform="scale(1 1) rotate(0) translate(4 884)">
<title>G</title>
<polygon fill="white" stroke="none" points="-4,4 -4,-884 462,-884 462,4 -4,4"/>
<g id="clust1" class="cluster"><title>cluster_Global</title>
<path fill="none" stroke="gray" d="M166,-8C166,-8 438,-8 438,-8 444,-8 450,-14 450,-20 450,-20 450,-860 450,-860 450,-866 444,-872 438,-872 438,-872 166,-872 166,-872 160,-872 154,-866 154,-860 154,-860 154,-20 154,-20 154,-14 160,-8 166,-8"/>
<text text-anchor="middle" x="302" y="-859.2" font-family="Times,serif" font-size="11.00" fill="gray">Global</text>
</g>
<g id="clust2" class="cluster"><title>cluster_\CEMS</title>
<path fill="none" stroke="gray" d="M174,-16C174,-16 430,-16 430,-16 436,-16 442,-22 442,-28 442,-28 442,-832 442,-832 442,-838 436,-844 430,-844 430,-844 174,-844 174,-844 168,-844 162,-838 162,-832 162,-832 162,-28 162,-28 162,-22 168,-16 174,-16"/>
<text text-anchor="middle" x="302" y="-831.2" font-family="Times,serif" font-size="11.00" fill="gray">CEMS</text>
</g>
<!-- \\CEMS\\BaseException -->
<g id="node1" class="node"><title>\\CEMS\\BaseException</title>
<polygon fill="none" stroke="black" points="254.5,-627 171.5,-627 171.5,-591 254.5,-591 254.5,-627"/>
<text text-anchor="middle" x="213" y="-606.2" font-family="Times,serif" font-size="11.00">BaseException</text>
</g>
<!-- \\Exception -->
<g id="node19" class="node"><title>\\Exception</title>
<ellipse fill="none" stroke="black" cx="49" cy="-609" rx="48.9926" ry="18"/>
<text text-anchor="middle" x="49" y="-605.3" font-family="Times,serif" font-size="14.00" fill="gray">\Exception</text>
</g>
<!-- \\CEMS\\BaseException&#45;&gt;\\Exception -->
<g id="edge1" class="edge"><title>\\CEMS\\BaseException&#45;&gt;\\Exception</title>
<path fill="none" stroke="black" d="M171.121,-609C151.949,-609 128.766,-609 107.836,-609"/>
<polygon fill="none" stroke="black" points="107.77,-605.5 97.7701,-609 107.77,-612.5 107.77,-605.5"/>
</g>
<!-- \\CEMS\\Guzzle3 -->
<g id="node2" class="node"><title>\\CEMS\\Guzzle3</title>
<polygon fill="none" stroke="black" points="408,-762 354,-762 354,-726 408,-726 408,-762"/>
<text text-anchor="middle" x="381" y="-741.2" font-family="Times,serif" font-size="11.00">Guzzle3</text>
</g>
<!-- \\CEMS\\GuzzleStrategy -->
<g id="node18" class="node"><title>\\CEMS\\GuzzleStrategy</title>
<polygon fill="none" stroke="black" points="256,-789 170,-789 170,-753 256,-753 256,-789"/>
<text text-anchor="middle" x="213" y="-768.2" font-family="Times,serif" font-size="11.00">GuzzleStrategy</text>
</g>
<!-- \\CEMS\\Guzzle3&#45;&gt;\\CEMS\\GuzzleStrategy -->
<g id="edge2" class="edge"><title>\\CEMS\\Guzzle3&#45;&gt;\\CEMS\\GuzzleStrategy</title>
<path fill="none" stroke="black" stroke-dasharray="1,5" d="M353.697,-748.278C330.226,-752.096 295.169,-757.798 266.047,-762.535"/>
<polygon fill="none" stroke="black" points="265.33,-759.105 256.022,-764.165 266.454,-766.014 265.33,-759.105"/>
</g>
<!-- \\CEMS\\ServerException -->
<g id="node3" class="node"><title>\\CEMS\\ServerException</title>
<polygon fill="none" stroke="black" points="426,-492 336,-492 336,-456 426,-456 426,-492"/>
<text text-anchor="middle" x="381" y="-471.2" font-family="Times,serif" font-size="11.00">ServerException</text>
</g>
<!-- \\CEMS\\ServerException&#45;&gt;\\CEMS\\BaseException -->
<g id="edge3" class="edge"><title>\\CEMS\\ServerException&#45;&gt;\\CEMS\\BaseException</title>
<path fill="none" stroke="black" d="M342.049,-492.109C337.194,-494.884 332.392,-497.873 328,-501 293.479,-525.575 258.853,-560.12 236.975,-583.47"/>
<polygon fill="none" stroke="black" points="234.293,-581.215 230.063,-590.929 239.427,-585.973 234.293,-581.215"/>
</g>
<!-- \\CEMS\\Error -->
<g id="node4" class="node"><title>\\CEMS\\Error</title>
<polygon fill="none" stroke="black" points="408,-708 354,-708 354,-672 408,-672 408,-708"/>
<text text-anchor="middle" x="381" y="-687.2" font-family="Times,serif" font-size="11.00">Error</text>
</g>
<!-- \\CEMS\\Error&#45;&gt;\\CEMS\\BaseException -->
<g id="edge4" class="edge"><title>\\CEMS\\Error&#45;&gt;\\CEMS\\BaseException</title>
<path fill="none" stroke="black" d="M353.697,-677.165C328.593,-664.916 290.235,-646.199 260.06,-631.475"/>
<polygon fill="none" stroke="black" points="261.504,-628.285 250.982,-627.045 258.434,-634.576 261.504,-628.285"/>
</g>
<!-- \\CEMS\\Guzzle4 -->
<g id="node5" class="node"><title>\\CEMS\\Guzzle4</title>
<polygon fill="none" stroke="black" points="408,-816 354,-816 354,-780 408,-780 408,-816"/>
<text text-anchor="middle" x="381" y="-795.2" font-family="Times,serif" font-size="11.00">Guzzle4</text>
</g>
<!-- \\CEMS\\Guzzle4&#45;&gt;\\CEMS\\GuzzleStrategy -->
<g id="edge5" class="edge"><title>\\CEMS\\Guzzle4&#45;&gt;\\CEMS\\GuzzleStrategy</title>
<path fill="none" stroke="black" stroke-dasharray="1,5" d="M353.697,-793.722C330.226,-789.904 295.169,-784.202 266.047,-779.465"/>
<polygon fill="none" stroke="black" points="266.454,-775.986 256.022,-777.835 265.33,-782.895 266.454,-775.986"/>
</g>
<!-- \\CEMS\\Event -->
<g id="node6" class="node"><title>\\CEMS\\Event</title>
<polygon fill="none" stroke="black" points="408,-114 354,-114 354,-78 408,-78 408,-114"/>
<text text-anchor="middle" x="381" y="-93.2" font-family="Times,serif" font-size="11.00">Event</text>
</g>
<!-- \\CEMS\\Resource -->
<g id="node9" class="node"><title>\\CEMS\\Resource</title>
<polygon fill="none" stroke="black" points="242.5,-276 183.5,-276 183.5,-240 242.5,-240 242.5,-276"/>
<text text-anchor="middle" x="213" y="-255.2" font-family="Times,serif" font-size="11.00">Resource</text>
</g>
<!-- \\CEMS\\Event&#45;&gt;\\CEMS\\Resource -->
<g id="edge6" class="edge"><title>\\CEMS\\Event&#45;&gt;\\CEMS\\Resource</title>
<path fill="none" stroke="black" d="M353.926,-107.047C345.233,-111.361 335.787,-116.777 328,-123 288.257,-154.761 252.164,-202.027 231.671,-231.38"/>
<polygon fill="none" stroke="black" points="228.609,-229.655 225.825,-239.878 234.376,-233.623 228.609,-229.655"/>
</g>
<!-- \\CEMS\\Client -->
<g id="node7" class="node"><title>\\CEMS\\Client</title>
<polygon fill="none" stroke="black" points="408,-546 354,-546 354,-510 408,-510 408,-546"/>
<text text-anchor="middle" x="381" y="-525.2" font-family="Times,serif" font-size="11.00">Client</text>
</g>
<!-- \\CEMS\\Subscription -->
<g id="node8" class="node"><title>\\CEMS\\Subscription</title>
<polygon fill="none" stroke="black" points="416.5,-60 345.5,-60 345.5,-24 416.5,-24 416.5,-60"/>
<text text-anchor="middle" x="381" y="-39.2" font-family="Times,serif" font-size="11.00">Subscription</text>
</g>
<!-- \\CEMS\\Subscription&#45;&gt;\\CEMS\\Resource -->
<g id="edge7" class="edge"><title>\\CEMS\\Subscription&#45;&gt;\\CEMS\\Resource</title>
<path fill="none" stroke="black" d="M345.491,-56.4859C339.256,-60.0229 333.119,-64.1979 328,-69 277.633,-116.251 241.682,-190.646 224.812,-230.546"/>
<polygon fill="none" stroke="black" points="221.527,-229.331 220.937,-239.91 227.995,-232.008 221.527,-229.331"/>
</g>
<!-- \\CEMS\\Response -->
<g id="node10" class="node"><title>\\CEMS\\Response</title>
<polygon fill="none" stroke="black" points="410.5,-438 351.5,-438 351.5,-402 410.5,-402 410.5,-438"/>
<text text-anchor="middle" x="381" y="-417.2" font-family="Times,serif" font-size="11.00">Response</text>
</g>
<!-- \\CEMS\\EventRegister -->
<g id="node11" class="node"><title>\\CEMS\\EventRegister</title>
<polygon fill="none" stroke="black" points="421,-384 341,-384 341,-348 421,-348 421,-384"/>
<text text-anchor="middle" x="381" y="-363.2" font-family="Times,serif" font-size="11.00">EventRegister</text>
</g>
<!-- \\CEMS\\EventRegister&#45;&gt;\\CEMS\\Resource -->
<g id="edge8" class="edge"><title>\\CEMS\\EventRegister&#45;&gt;\\CEMS\\Resource</title>
<path fill="none" stroke="black" d="M343.556,-347.899C338.271,-345.037 332.948,-342.022 328,-339 299.155,-321.381 267.97,-298.971 245.519,-282.191"/>
<polygon fill="none" stroke="black" points="247.461,-279.272 237.366,-276.057 243.253,-284.866 247.461,-279.272"/>
</g>
<!-- \\CEMS\\Customer -->
<g id="node12" class="node"><title>\\CEMS\\Customer</title>
<polygon fill="none" stroke="black" points="410.5,-330 351.5,-330 351.5,-294 410.5,-294 410.5,-330"/>
<text text-anchor="middle" x="381" y="-309.2" font-family="Times,serif" font-size="11.00">Customer</text>
</g>
<!-- \\CEMS\\Customer&#45;&gt;\\CEMS\\Resource -->
<g id="edge9" class="edge"><title>\\CEMS\\Customer&#45;&gt;\\CEMS\\Resource</title>
<path fill="none" stroke="black" d="M351.464,-302.717C324.146,-293.831 282.737,-280.36 252.507,-270.526"/>
<polygon fill="none" stroke="black" points="253.312,-267.108 242.72,-267.343 251.146,-273.764 253.312,-267.108"/>
</g>
<!-- \\CEMS\\SubscriberList -->
<g id="node13" class="node"><title>\\CEMS\\SubscriberList</title>
<polygon fill="none" stroke="black" points="421.5,-276 340.5,-276 340.5,-240 421.5,-240 421.5,-276"/>
<text text-anchor="middle" x="381" y="-255.2" font-family="Times,serif" font-size="11.00">SubscriberList</text>
</g>
<!-- \\CEMS\\SubscriberList&#45;&gt;\\CEMS\\Resource -->
<g id="edge10" class="edge"><title>\\CEMS\\SubscriberList&#45;&gt;\\CEMS\\Resource</title>
<path fill="none" stroke="black" d="M340.239,-258C313.768,-258 279.156,-258 252.871,-258"/>
<polygon fill="none" stroke="black" points="252.523,-254.5 242.523,-258 252.523,-261.5 252.523,-254.5"/>
</g>
<!-- \\CEMS\\ApiHelper -->
<g id="node14" class="node"><title>\\CEMS\\ApiHelper</title>
<polygon fill="none" stroke="black" points="413,-222 349,-222 349,-186 413,-186 413,-222"/>
<text text-anchor="middle" x="381" y="-201.2" font-family="Times,serif" font-size="11.00">ApiHelper</text>
</g>
<!-- \\CEMS\\Collection -->
<g id="node15" class="node"><title>\\CEMS\\Collection</title>
<polygon fill="none" stroke="black" points="412,-168 350,-168 350,-132 412,-132 412,-168"/>
<text text-anchor="middle" x="381" y="-147.2" font-family="Times,serif" font-size="11.00">Collection</text>
</g>
<!-- \\CEMS\\ClientException -->
<g id="node16" class="node"><title>\\CEMS\\ClientException</title>
<polygon fill="none" stroke="black" points="425,-654 337,-654 337,-618 425,-618 425,-654"/>
<text text-anchor="middle" x="381" y="-633.2" font-family="Times,serif" font-size="11.00">ClientException</text>
</g>
<!-- \\CEMS\\ClientException&#45;&gt;\\CEMS\\BaseException -->
<g id="edge11" class="edge"><title>\\CEMS\\ClientException&#45;&gt;\\CEMS\\BaseException</title>
<path fill="none" stroke="black" d="M336.819,-628.977C314.727,-625.383 287.703,-620.988 264.634,-617.236"/>
<polygon fill="none" stroke="black" points="265.113,-613.768 254.681,-615.617 263.99,-620.677 265.113,-613.768"/>
</g>
<!-- \\CEMS\\AuthorizeException -->
<g id="node17" class="node"><title>\\CEMS\\AuthorizeException</title>
<polygon fill="none" stroke="black" points="433.5,-600 328.5,-600 328.5,-564 433.5,-564 433.5,-600"/>
<text text-anchor="middle" x="381" y="-579.2" font-family="Times,serif" font-size="11.00">AuthorizeException</text>
</g>
<!-- \\CEMS\\AuthorizeException&#45;&gt;\\CEMS\\BaseException -->
<g id="edge12" class="edge"><title>\\CEMS\\AuthorizeException&#45;&gt;\\CEMS\\BaseException</title>
<path fill="none" stroke="black" d="M328.387,-590.395C308.032,-593.706 284.723,-597.497 264.48,-600.789"/>
<polygon fill="none" stroke="black" points="263.82,-597.351 254.512,-602.411 264.944,-604.26 263.82,-597.351"/>
</g>
</g>
</svg>
